<svg xmlns="http://www.w3.org/2000/svg" width="840" height="594" viewBox="0 0 840 594" role="img" aria-labelledby="t d">
<!-- Generated by docs/assets/build.py from bench/local/summary.json. Do not edit. -->
<title id="t">Time for a triage session</title>
<desc id="d">Windows 11 x64, 5 GiB raw image · 12 plugins in a row: python volatility3 every session 59.5 s; Windows 11 x64, 5 GiB raw image · 12 plugins in a row: vol-rs first session 3.71 s; Windows 11 x64, 5 GiB raw image · 12 plugins in a row: vol-rs repeat session 3.44 s; Windows 11 x64, 5 GiB raw image · 12 plugins in a row: fastvol first session 126 ms; Windows 11 x64, 5 GiB raw image · 12 plugins in a row: fastvol repeat session 35.1 ms; Ubuntu 24.04, Linux 6.8, 3 GiB ELF core · 10 plugins in a row: python volatility3 every session 80.8 s; Ubuntu 24.04, Linux 6.8, 3 GiB ELF core · 10 plugins in a row: vol-rs first session 2.76 s; Ubuntu 24.04, Linux 6.8, 3 GiB ELF core · 10 plugins in a row: vol-rs repeat session 1.32 s; Ubuntu 24.04, Linux 6.8, 3 GiB ELF core · 10 plugins in a row: fastvol first session 227 ms; Ubuntu 24.04, Linux 6.8, 3 GiB ELF core · 10 plugins in a row: fastvol repeat session 33.2 ms. Measured on a desktop: Intel Core i7-12700KF (12 cores, 20 threads), 64 GB RAM, NVMe SSD, Linux 7.1.8. Source: bench/local/BENCHMARKS.md.</desc>
<style>
text{font-family:-apple-system, BlinkMacSystemFont, 'Segoe UI', 'Noto Sans', Helvetica, Arial, sans-serif;fill:#1f2328}
.title{font-size:17px;font-weight:600}
.sub{font-size:12.5px;fill:#59636e}
.h{font-size:13px;font-weight:600}
.tool{font-size:13px;fill:#59636e}
.run{font-size:12px;fill:#6e7781}
.val{font-size:12px;fill:#59636e;paint-order:stroke;stroke:#ffffff;stroke-width:5px;stroke-linejoin:round}
.b{font-weight:600;fill:#1f2328}
.note{font-weight:400;fill:#6e7781}
.tick{font-size:11px;fill:#6e7781}
.foot{font-size:11px;fill:#6e7781}
.grid{stroke:#e6eaef;stroke-width:1;fill:none}
</style>
<rect x=".5" y=".5" width="839" height="593" rx="12" fill="#ffffff" stroke="#d1d9e0"/>
<text x="28" y="42" class="title">Time for a triage session</text>
<text x="28" y="64" class="sub">The common plugins run one after another, each as its own process. Linear scale, shorter is faster; python runs off it.</text>
<text x="28" y="84" class="sub">Measured on a desktop: Intel Core i7-12700KF (12 cores, 20 threads), 64 GB RAM, NVMe SSD, Linux 7.1.8.</text>
<text x="28" y="122" class="h">Windows 11 x64, 5 GiB raw image · 12 plugins in a row</text>
<path d="M256.0 132V262" class="grid"/>
<path d="M372.0 132V262" class="grid"/>
<path d="M488.0 132V262" class="grid"/>
<path d="M604.0 132V262" class="grid"/>
<path d="M720.0 132V262" class="grid"/>
<text x="28" y="149.5" class="tool">python volatility3</text>
<text x="164" y="149.5" class="run">every session</text>
<path fill="#8c959f" d="M256 139.0H732.0A4 4 0 0 1 736.0 143.0V147.0A4 4 0 0 1 732.0 151.0H256Z"/>
<path fill="#ffffff" d="M723.0 137.0h5l-4 16h-5z"/>
<text x="743.0" y="149.5" class="val">59.5 s</text>
<text x="28" y="190.5" class="tool">vol-rs</text>
<text x="164" y="179.5" class="run">first session</text>
<path fill="#c5ccd4" d="M256 169.0H682.6A4 4 0 0 1 686.6 173.0V177.0A4 4 0 0 1 682.6 181.0H256Z"/>
<text x="693.6" y="179.5" class="val">3.71 s</text>
<text x="164" y="201.5" class="run">repeat session</text>
<path fill="#8c959f" d="M256 191.0H651.3A4 4 0 0 1 655.3 195.0V199.0A4 4 0 0 1 651.3 203.0H256Z"/>
<text x="662.3" y="201.5" class="val">3.44 s</text>
<text x="28" y="242.5" class="tool b">fastvol</text>
<text x="164" y="231.5" class="run">first session</text>
<path fill="#8fd9a8" d="M256 221.0H266.6A4 4 0 0 1 270.6 225.0V229.0A4 4 0 0 1 266.6 233.0H256Z"/>
<text x="277.6" y="231.5" class="val b">126 ms<tspan class="note" dx="8">473x faster than python</tspan></text>
<text x="164" y="253.5" class="run">repeat session</text>
<path fill="#1f9e57" d="M256 243.0H258.0A2.0331610597204417 2.0331610597204417 0 0 1 260.1 245.0V253.0A2.0331610597204417 2.0331610597204417 0 0 1 258.0 255.0H256Z"/>
<text x="267.1" y="253.5" class="val b">35.1 ms<tspan class="note" dx="8">1,701x faster than python</tspan></text>
<text x="256.0" y="278" class="tick" text-anchor="middle">0</text>
<text x="372.0" y="278" class="tick" text-anchor="middle">1 s</text>
<text x="488.0" y="278" class="tick" text-anchor="middle">2 s</text>
<text x="604.0" y="278" class="tick" text-anchor="middle">3 s</text>
<text x="720.0" y="278" class="tick" text-anchor="middle">4 s</text>
<text x="28" y="318" class="h">Ubuntu 24.04, Linux 6.8, 3 GiB ELF core · 10 plugins in a row</text>
<path d="M256.0 328V458" class="grid"/>
<path d="M410.7 328V458" class="grid"/>
<path d="M565.3 328V458" class="grid"/>
<path d="M720.0 328V458" class="grid"/>
<text x="28" y="345.5" class="tool">python volatility3</text>
<text x="164" y="345.5" class="run">every session</text>
<path fill="#8c959f" d="M256 335.0H732.0A4 4 0 0 1 736.0 339.0V343.0A4 4 0 0 1 732.0 347.0H256Z"/>
<path fill="#ffffff" d="M723.0 333.0h5l-4 16h-5z"/>
<text x="743.0" y="345.5" class="val">80.8 s</text>
<text x="28" y="386.5" class="tool">vol-rs</text>
<text x="164" y="375.5" class="run">first session</text>
<path fill="#c5ccd4" d="M256 365.0H678.3A4 4 0 0 1 682.3 369.0V373.0A4 4 0 0 1 678.3 377.0H256Z"/>
<text x="689.3" y="375.5" class="val">2.76 s</text>
<text x="164" y="397.5" class="run">repeat session</text>
<path fill="#8c959f" d="M256 387.0H456.7A4 4 0 0 1 460.7 391.0V395.0A4 4 0 0 1 456.7 399.0H256Z"/>
<text x="467.7" y="397.5" class="val">1.32 s</text>
<text x="28" y="438.5" class="tool b">fastvol</text>
<text x="164" y="427.5" class="run">first session</text>
<path fill="#8fd9a8" d="M256 417.0H287.1A4 4 0 0 1 291.1 421.0V425.0A4 4 0 0 1 287.1 429.0H256Z"/>
<text x="298.1" y="427.5" class="val b">227 ms<tspan class="note" dx="8">356x faster than python</tspan></text>
<text x="164" y="449.5" class="run">repeat session</text>
<path fill="#1f9e57" d="M256 439.0H258.6A2.568713206176966 2.568713206176966 0 0 1 261.1 441.6V448.4A2.568713206176966 2.568713206176966 0 0 1 258.6 451.0H256Z"/>
<text x="268.1" y="449.5" class="val b">33.2 ms<tspan class="note" dx="8">2,489x faster than python</tspan></text>
<text x="256.0" y="474" class="tick" text-anchor="middle">0</text>
<text x="410.7" y="474" class="tick" text-anchor="middle">1 s</text>
<text x="565.3" y="474" class="tick" text-anchor="middle">2 s</text>
<text x="720.0" y="474" class="tick" text-anchor="middle">3 s</text>
<text x="28" y="504" class="foot">Medians of repeated runs, image in the page cache. First session: the tool's cache empty at the start, as on a new image.</text>
<text x="28" y="521" class="foot">Repeat: the same session again. python's symbol caches are warm in both.</text>
<text x="28" y="538" class="foot">Every plugin once, per-plugin geometric-mean speedup over python (every scan really done):</text>
<text x="28" y="555" class="foot">Windows (77 plugins) 108x with no fastvol cache, 556x with symbol caches warm; Linux (59 plugins) 184x with no fastvol cache, 3,094x with symbol caches warm.</text>
<text x="28" y="572" class="foot">Source: bench/local/BENCHMARKS.md</text>
</svg>
